<svg width="19" height="8" viewBox="0 0 19 8" fill="none" xmlns="http://www.w3.org/2000/svg">
<path d="M1.20056 2.85622C2.42859 1.95326 4.40649 2.01363 5.8558 1.91701C8.21999 1.7594 10.6729 1.71064 12.9152 2.58569C13.6212 2.86121 14.186 3.25534 14.7987 3.68314C15.1249 3.91085 15.6079 4.19073 15.8043 4.55089C15.9019 4.72975 16.1101 4.8047 16.1974 4.96945C16.2974 5.15848 16.2416 5.34209 16.3607 5.52073M15.5338 1.20239C16.0272 2.16955 16.8538 3.1483 17.0089 4.23442C17.0387 4.44261 17.6828 6.21785 17.453 6.25067C16.8765 6.33302 16.1944 5.955 15.6716 5.75043C15.0861 5.52132 14.5159 5.37494 13.9004 5.26551C13.1346 5.12938 12.3628 5.15322 11.5829 5.15322" stroke-width="2" stroke-linecap="round"/>
</svg>
