<svg width="77" height="43" viewBox="0 0 77 43" fill="none" xmlns="http://www.w3.org/2000/svg">
<path d="M75.4357 37.3879C69.0064 39.7309 62.152 40.1411 55.3723 40.7583C44.4126 41.7559 33.4829 42 22.4834 42C15.9463 42 9.45744 41.8761 2.93694 41.6452C-0.507191 41.5233 1.66737 30.0914 1.78365 27.9271C2.17369 20.6674 4.56747 13.5528 4.56747 6.34482C4.56747 3.75629 4.43866 2.04015 7.3513 1.63416C14.1369 0.688314 21.4203 0.968098 28.23 1.39763C38.7616 2.06194 49.2983 2.79182 59.8264 3.50659C63.5104 3.75671 67.3822 4.03876 71.0611 4.03876C71.6595 4.03876 73.1325 3.74878 73.5666 4.1176C74.5049 4.91484 74.8423 7.45984 75.0778 8.57204C76.5817 15.675 75.7936 23.506 75.7936 30.6471C75.7936 32.9873 74.7199 35.3481 74.7199 37.7427" stroke="#FF4C4D" stroke-width="2" stroke-linecap="round"/>
<path d="M2.53863 6.44135C8.67558 4.18512 15.2182 3.79006 21.6896 3.19575C32.1508 2.23503 42.5835 2 53.0828 2C59.3226 2 65.5163 2.11936 71.7402 2.34164C75.0277 2.45905 72.9521 13.4677 72.8411 15.5518C72.4688 22.5428 70.1839 29.394 70.1839 36.3351C70.1839 38.8278 70.3068 40.4804 67.5266 40.8713C61.0497 41.7822 54.0975 41.5127 47.5975 41.0991C37.5449 40.4594 27.4873 39.7565 17.438 39.0682C13.9216 38.8274 10.2259 38.5558 6.71427 38.5558C6.14312 38.5558 4.73713 38.835 4.32277 38.4798C3.42709 37.7121 3.10506 35.2613 2.88028 34.1903C1.44473 27.3504 2.19699 19.8093 2.19699 12.9326C2.19699 10.679 3.22192 8.40562 3.22192 6.09971" stroke="white" stroke-width="2" stroke-linecap="round"/>
</svg>
