<svg width="84" height="500" viewBox="0 0 84 500" fill="none" xmlns="http://www.w3.org/2000/svg">
<path fill-rule="evenodd" clip-rule="evenodd" d="M39.76 48C39.4354 45.1023 38.7922 42.3856 37.8772 40.0471C36.9622 37.7085 35.7983 35.8068 34.47 34.48L0 0V27.64C0.000991486 31.3532 0.518831 34.9926 1.49552 38.1505C2.47222 41.3084 3.86919 43.8602 5.53 45.52L8 48H12.47L6.42 41.96C5.09089 40.6298 3.97332 38.5854 3.19261 36.0561C2.41191 33.5268 1.99894 30.6125 2 27.64V6.48L33.58 38.04C34.5754 39.0357 35.4559 40.4358 36.1653 42.1508C36.8747 43.8658 37.3974 45.858 37.7 48H39.76ZM76 48L78.47 45.52C80.1308 43.8602 81.5278 41.3084 82.5045 38.1505C83.4812 34.9926 83.999 31.3532 84 27.64V0L49.53 34.48C48.2017 35.8068 47.0378 37.7085 46.1228 40.0471C45.2078 42.3856 44.5646 45.1023 44.24 48H46.3C46.6026 45.858 47.1253 43.8658 47.8347 42.1508C48.5441 40.4358 49.4246 39.0357 50.42 38.04L82 6.48V27.64C82.0011 30.6125 81.5881 33.5268 80.8074 36.0561C80.0267 38.5854 78.9091 40.6298 77.58 41.96L71.53 48H76Z" fill="white" fill-opacity="0.1"/>
<path fill-rule="evenodd" clip-rule="evenodd" d="M8 48L40 80V52.36C40.0002 50.8935 39.9197 49.4313 39.76 48H37.7C37.8999 49.4188 38.0009 50.886 38 52.36V73.52L12.47 48H8ZM76 48L44 80V52.36C43.9998 50.8935 44.0803 49.4313 44.24 48H46.3C46.1001 49.4188 45.9991 50.886 46 52.36V73.52L71.53 48H76Z" fill="white" fill-opacity="0.1"/>
<path fill-rule="evenodd" clip-rule="evenodd" d="M39.76 288C39.4354 285.102 38.7922 282.386 37.8772 280.047C36.9622 277.708 35.7983 275.807 34.47 274.48L0 240V267.64C0.000991486 271.353 0.518831 274.993 1.49552 278.151C2.47222 281.308 3.86919 283.86 5.53 285.52L8 288H12.47L6.42 281.96C5.09089 280.63 3.97332 278.585 3.19261 276.056C2.41191 273.527 1.99894 270.612 2 267.64V246.48L33.58 278.04C34.5754 279.036 35.4559 280.436 36.1653 282.151C36.8747 283.866 37.3974 285.858 37.7 288H39.76ZM76 288L78.47 285.52C80.1308 283.86 81.5278 281.308 82.5045 278.151C83.4812 274.993 83.999 271.353 84 267.64V240L49.53 274.48C48.2017 275.807 47.0378 277.708 46.1228 280.047C45.2078 282.386 44.5646 285.102 44.24 288H46.3C46.6026 285.858 47.1253 283.866 47.8347 282.151C48.5441 280.436 49.4246 279.036 50.42 278.04L82 246.48V267.64C82.0011 270.612 81.5881 273.527 80.8074 276.056C80.0267 278.585 78.9091 280.63 77.58 281.96L71.53 288H76Z" fill="white" fill-opacity="0.1"/>
<path fill-rule="evenodd" clip-rule="evenodd" d="M8 288L40 320V292.36C40.0002 290.893 39.9197 289.431 39.76 288H37.7C37.8999 289.419 38.0009 290.886 38 292.36V313.52L12.47 288H8ZM76 288L44 320V292.36C43.9998 290.893 44.0803 289.431 44.24 288H46.3C46.1001 289.419 45.9991 290.886 46 292.36V313.52L71.53 288H76Z" fill="white" fill-opacity="0.1"/>
<path fill-rule="evenodd" clip-rule="evenodd" d="M39.76 168C39.4354 165.102 38.7922 162.386 37.8772 160.047C36.9622 157.708 35.7983 155.807 34.47 154.48L0 120V147.64C0.000991486 151.353 0.518831 154.993 1.49552 158.151C2.47222 161.308 3.86919 163.86 5.53 165.52L8 168H12.47L6.42 161.96C5.09089 160.63 3.97332 158.585 3.19261 156.056C2.41191 153.527 1.99894 150.612 2 147.64V126.48L33.58 158.04C34.5754 159.036 35.4559 160.436 36.1653 162.151C36.8747 163.866 37.3974 165.858 37.7 168H39.76ZM76 168L78.47 165.52C80.1308 163.86 81.5278 161.308 82.5045 158.151C83.4812 154.993 83.999 151.353 84 147.64V120L49.53 154.48C48.2017 155.807 47.0378 157.708 46.1228 160.047C45.2078 162.386 44.5646 165.102 44.24 168H46.3C46.6026 165.858 47.1253 163.866 47.8347 162.151C48.5441 160.436 49.4246 159.036 50.42 158.04L82 126.48V147.64C82.0011 150.612 81.5881 153.527 80.8074 156.056C80.0267 158.585 78.9091 160.63 77.58 161.96L71.53 168H76Z" fill="white" fill-opacity="0.1"/>
<path fill-rule="evenodd" clip-rule="evenodd" d="M8 168L40 200V172.36C40.0002 170.893 39.9197 169.431 39.76 168H37.7C37.8999 169.419 38.0009 170.886 38 172.36V193.52L12.47 168H8ZM76 168L44 200V172.36C43.9998 170.893 44.0803 169.431 44.24 168H46.3C46.1001 169.419 45.9991 170.886 46 172.36V193.52L71.53 168H76Z" fill="white" fill-opacity="0.1"/>
<path fill-rule="evenodd" clip-rule="evenodd" d="M39.76 408C39.4354 405.102 38.7922 402.386 37.8772 400.047C36.9622 397.708 35.7983 395.807 34.47 394.48L0 360V387.64C0.000991486 391.353 0.518831 394.993 1.49552 398.151C2.47222 401.308 3.86919 403.86 5.53 405.52L8 408H12.47L6.42 401.96C5.09089 400.63 3.97332 398.585 3.19261 396.056C2.41191 393.527 1.99894 390.612 2 387.64V366.48L33.58 398.04C34.5754 399.036 35.4559 400.436 36.1653 402.151C36.8747 403.866 37.3974 405.858 37.7 408H39.76ZM76 408L78.47 405.52C80.1308 403.86 81.5278 401.308 82.5045 398.151C83.4812 394.993 83.999 391.353 84 387.64V360L49.53 394.48C48.2017 395.807 47.0378 397.708 46.1228 400.047C45.2078 402.386 44.5646 405.102 44.24 408H46.3C46.6026 405.858 47.1253 403.866 47.8347 402.151C48.5441 400.436 49.4246 399.036 50.42 398.04L82 366.48V387.64C82.0011 390.612 81.5881 393.527 80.8074 396.056C80.0267 398.585 78.9091 400.63 77.58 401.96L71.53 408H76Z" fill="white" fill-opacity="0.1"/>
<path fill-rule="evenodd" clip-rule="evenodd" d="M8 408L40 440V412.36C40.0002 410.893 39.9197 409.431 39.76 408H37.7C37.8999 409.419 38.0009 410.886 38 412.36V433.52L12.47 408H8ZM76 408L44 440V412.36C43.9998 410.893 44.0803 409.431 44.24 408H46.3C46.1001 409.419 45.9991 410.886 46 412.36V433.52L71.53 408H76Z" fill="white" fill-opacity="0.1"/>
<path fill-rule="evenodd" clip-rule="evenodd" d="M39.76 108C39.4354 105.102 38.7922 102.386 37.8772 100.047C36.9622 97.7085 35.7983 95.8068 34.47 94.48L0 60V87.64C0.000991486 91.3532 0.518831 94.9926 1.49552 98.1505C2.47222 101.308 3.86919 103.86 5.53 105.52L8 108H12.47L6.42 101.96C5.09089 100.63 3.97332 98.5854 3.19261 96.0561C2.41191 93.5268 1.99894 90.6125 2 87.64V66.48L33.58 98.04C34.5754 99.0357 35.4559 100.436 36.1653 102.151C36.8747 103.866 37.3974 105.858 37.7 108H39.76ZM76 108L78.47 105.52C80.1308 103.86 81.5278 101.308 82.5045 98.1505C83.4812 94.9926 83.999 91.3532 84 87.64V60L49.53 94.48C48.2017 95.8068 47.0378 97.7085 46.1228 100.047C45.2078 102.386 44.5646 105.102 44.24 108H46.3C46.6026 105.858 47.1253 103.866 47.8347 102.151C48.5441 100.436 49.4246 99.0357 50.42 98.04L82 66.48V87.64C82.0011 90.6125 81.5881 93.5268 80.8074 96.0561C80.0267 98.5854 78.9091 100.63 77.58 101.96L71.53 108H76Z" fill="white" fill-opacity="0.1"/>
<path fill-rule="evenodd" clip-rule="evenodd" d="M8 108L40 140V112.36C40.0002 110.893 39.9197 109.431 39.76 108H37.7C37.8999 109.419 38.0009 110.886 38 112.36V133.52L12.47 108H8ZM76 108L44 140V112.36C43.9998 110.893 44.0803 109.431 44.24 108H46.3C46.1001 109.419 45.9991 110.886 46 112.36V133.52L71.53 108H76Z" fill="white" fill-opacity="0.1"/>
<path fill-rule="evenodd" clip-rule="evenodd" d="M39.76 348C39.4354 345.102 38.7922 342.386 37.8772 340.047C36.9622 337.708 35.7983 335.807 34.47 334.48L0 300V327.64C0.000991486 331.353 0.518831 334.993 1.49552 338.151C2.47222 341.308 3.86919 343.86 5.53 345.52L8 348H12.47L6.42 341.96C5.09089 340.63 3.97332 338.585 3.19261 336.056C2.41191 333.527 1.99894 330.612 2 327.64V306.48L33.58 338.04C34.5754 339.036 35.4559 340.436 36.1653 342.151C36.8747 343.866 37.3974 345.858 37.7 348H39.76ZM76 348L78.47 345.52C80.1308 343.86 81.5278 341.308 82.5045 338.151C83.4812 334.993 83.999 331.353 84 327.64V300L49.53 334.48C48.2017 335.807 47.0378 337.708 46.1228 340.047C45.2078 342.386 44.5646 345.102 44.24 348H46.3C46.6026 345.858 47.1253 343.866 47.8347 342.151C48.5441 340.436 49.4246 339.036 50.42 338.04L82 306.48V327.64C82.0011 330.612 81.5881 333.527 80.8074 336.056C80.0267 338.585 78.9091 340.63 77.58 341.96L71.53 348H76Z" fill="white" fill-opacity="0.1"/>
<path fill-rule="evenodd" clip-rule="evenodd" d="M8 348L40 380V352.36C40.0002 350.893 39.9197 349.431 39.76 348H37.7C37.8999 349.419 38.0009 350.886 38 352.36V373.52L12.47 348H8ZM76 348L44 380V352.36C43.9998 350.893 44.0803 349.431 44.24 348H46.3C46.1001 349.419 45.9991 350.886 46 352.36V373.52L71.53 348H76Z" fill="white" fill-opacity="0.1"/>
<path fill-rule="evenodd" clip-rule="evenodd" d="M39.76 228C39.4354 225.102 38.7922 222.386 37.8772 220.047C36.9622 217.708 35.7983 215.807 34.47 214.48L0 180V207.64C0.000991486 211.353 0.518831 214.993 1.49552 218.151C2.47222 221.308 3.86919 223.86 5.53 225.52L8 228H12.47L6.42 221.96C5.09089 220.63 3.97332 218.585 3.19261 216.056C2.41191 213.527 1.99894 210.612 2 207.64V186.48L33.58 218.04C34.5754 219.036 35.4559 220.436 36.1653 222.151C36.8747 223.866 37.3974 225.858 37.7 228H39.76ZM76 228L78.47 225.52C80.1308 223.86 81.5278 221.308 82.5045 218.151C83.4812 214.993 83.999 211.353 84 207.64V180L49.53 214.48C48.2017 215.807 47.0378 217.708 46.1228 220.047C45.2078 222.386 44.5646 225.102 44.24 228H46.3C46.6026 225.858 47.1253 223.866 47.8347 222.151C48.5441 220.436 49.4246 219.036 50.42 218.04L82 186.48V207.64C82.0011 210.612 81.5881 213.527 80.8074 216.056C80.0267 218.585 78.9091 220.63 77.58 221.96L71.53 228H76Z" fill="white" fill-opacity="0.1"/>
<path fill-rule="evenodd" clip-rule="evenodd" d="M8 228L40 260V232.36C40.0002 230.893 39.9197 229.431 39.76 228H37.7C37.8999 229.419 38.0009 230.886 38 232.36V253.52L12.47 228H8ZM76 228L44 260V232.36C43.9998 230.893 44.0803 229.431 44.24 228H46.3C46.1001 229.419 45.9991 230.886 46 232.36V253.52L71.53 228H76Z" fill="white" fill-opacity="0.1"/>
<path fill-rule="evenodd" clip-rule="evenodd" d="M39.76 468C39.4354 465.102 38.7922 462.386 37.8772 460.047C36.9622 457.708 35.7983 455.807 34.47 454.48L0 420V447.64C0.000991486 451.353 0.518831 454.993 1.49552 458.151C2.47222 461.308 3.86919 463.86 5.53 465.52L8 468H12.47L6.42 461.96C5.09089 460.63 3.97332 458.585 3.19261 456.056C2.41191 453.527 1.99894 450.612 2 447.64V426.48L33.58 458.04C34.5754 459.036 35.4559 460.436 36.1653 462.151C36.8747 463.866 37.3974 465.858 37.7 468H39.76ZM76 468L78.47 465.52C80.1308 463.86 81.5278 461.308 82.5045 458.151C83.4812 454.993 83.999 451.353 84 447.64V420L49.53 454.48C48.2017 455.807 47.0378 457.708 46.1228 460.047C45.2078 462.386 44.5646 465.102 44.24 468H46.3C46.6026 465.858 47.1253 463.866 47.8347 462.151C48.5441 460.436 49.4246 459.036 50.42 458.04L82 426.48V447.64C82.0011 450.612 81.5881 453.527 80.8074 456.056C80.0267 458.585 78.9091 460.63 77.58 461.96L71.53 468H76Z" fill="white" fill-opacity="0.1"/>
<path fill-rule="evenodd" clip-rule="evenodd" d="M8 468L40 500V472.36C40.0002 470.893 39.9197 469.431 39.76 468H37.7C37.8999 469.419 38.0009 470.886 38 472.36V493.52L12.47 468H8ZM76 468L44 500V472.36C43.9998 470.893 44.0803 469.431 44.24 468H46.3C46.1001 469.419 45.9991 470.886 46 472.36V493.52L71.53 468H76Z" fill="white" fill-opacity="0.1"/>
</svg>
